<svg width="218" height="42" viewBox="0 0 218 42" fill="none" xmlns="http://www.w3.org/2000/svg">
<path d="M83.8915 28.5581L80.906 23.4619H77.7684V28.5581H76V15.2472H81.3244C82.4653 15.2472 83.4414 15.6529 84.2528 16.4642C85.0641 17.2629 85.4698 18.2326 85.4698 19.3736C85.4698 20.2356 85.2099 21.0216 84.6901 21.7315C84.183 22.4414 83.5238 22.9422 82.7125 23.2337L85.8501 28.5581H83.8915ZM77.7684 16.9016V21.8646H81.3244C81.9836 21.8646 82.5414 21.6238 82.9977 21.142C83.4668 20.6476 83.7013 20.0581 83.7013 19.3736C83.7013 18.689 83.4668 18.1059 82.9977 17.6241C82.5414 17.1424 81.9836 16.9016 81.3244 16.9016H77.7684Z" fill="#FEFEFE"/>
<path d="M98.0516 26.8847H104.232V28.5581H96.2832V15.2472H104.137V16.9206H98.0516V21.0089H103.661V22.6633H98.0516V26.8847Z" fill="#FEFEFE"/>
<path d="M119.323 28.8053C118.08 28.8053 117.015 28.5137 116.128 27.9306C115.253 27.3474 114.638 26.5488 114.283 25.5346L115.805 24.6599C116.324 26.2699 117.51 27.0749 119.361 27.0749C120.273 27.0749 120.971 26.8911 121.452 26.5234C121.934 26.1431 122.175 25.6424 122.175 25.0212C122.175 24.3874 121.934 23.912 121.452 23.595C120.971 23.2781 120.166 22.9422 119.037 22.5872C118.48 22.4097 118.055 22.2703 117.763 22.1689C117.472 22.0548 117.104 21.89 116.66 21.6745C116.229 21.4463 115.906 21.2181 115.691 20.9899C115.475 20.749 115.279 20.4385 115.101 20.0581C114.936 19.6778 114.854 19.2468 114.854 18.7651C114.854 17.6115 115.26 16.6987 116.071 16.0268C116.882 15.3423 117.871 15 119.037 15C120.09 15 121.002 15.2662 121.776 15.7987C122.562 16.3311 123.151 17.0347 123.544 17.9094L122.061 18.7651C121.49 17.396 120.483 16.7114 119.037 16.7114C118.315 16.7114 117.732 16.8889 117.288 17.2438C116.844 17.5988 116.622 18.0805 116.622 18.689C116.622 19.2722 116.832 19.7159 117.25 20.0201C117.668 20.3244 118.391 20.6413 119.418 20.9709C119.785 21.085 120.045 21.1674 120.197 21.2181C120.349 21.2688 120.584 21.3575 120.901 21.4843C121.23 21.6111 121.471 21.7125 121.623 21.7886C121.776 21.8646 121.978 21.9724 122.232 22.1118C122.498 22.2513 122.695 22.3844 122.821 22.5112C122.948 22.6379 123.094 22.7964 123.259 22.9865C123.436 23.164 123.563 23.3478 123.639 23.538C123.715 23.7281 123.779 23.95 123.829 24.2035C123.893 24.4444 123.924 24.7043 123.924 24.9832C123.924 26.1495 123.5 27.0812 122.65 27.7785C121.801 28.463 120.692 28.8053 119.323 28.8053Z" fill="#FEFEFE"/>
<path d="M136.352 26.8847H142.095V28.5581H134.584V15.2472H136.352V26.8847Z" fill="#FEFEFE"/>
<path d="M152.527 15.2472H154.296V28.5581H152.527V15.2472Z" fill="#FEFEFE"/>
<path d="M174.081 15.2472H175.85V28.5581H174.424L167.578 18.613V28.5581H165.81V15.2472H167.236L174.081 25.1733V15.2472Z" fill="#FEFEFE"/>
<path d="M197.035 28.5581H194.867L189.124 22.1689V28.5581H187.356V15.2472H189.124V21.2561L194.677 15.2472H196.844L190.969 21.7125L197.035 28.5581Z" fill="#FEFEFE"/>
<path fill-rule="evenodd" clip-rule="evenodd" d="M47.9256 25.3426C47.9385 26.5342 47.8994 27.7238 47.8081 28.9113C46.943 33.9136 44.1238 37.538 39.3507 39.7846C33.4543 42.0027 28.09 41.1848 23.2579 37.3312C21.5049 35.6572 20.252 33.6757 19.3816 31.4763C19.2148 31.0549 18.9912 30.6088 18.9117 30.2496C18.4153 28.0068 18.4545 25.7763 19.0292 23.5583C19.0974 23.3042 19.1709 23.0653 19.2641 22.7777C20.0477 20.3598 21.3986 18.278 23.3167 16.5325C24.4967 15.3562 25.7301 14.2409 27.0168 13.1868C28.3873 14.4136 29.7185 15.6774 31.0106 16.9786C29.5209 18.4114 28.0526 19.8612 26.6057 21.3279C25.8556 22.1574 25.2878 23.0868 24.9024 24.1159C24.8022 24.3836 24.7537 24.6133 24.6675 24.8966C24.5135 25.4024 24.4353 25.9229 24.4326 26.4579C24.2971 27.1068 24.4046 27.6891 24.5008 28.3784L24.55 28.5768C25.4091 32.0874 27.68 34.2992 31.363 35.2123C34.9795 35.7701 37.9749 34.7478 40.3491 32.1454C41.006 31.2978 41.6222 30.4489 41.9443 29.4379L41.9936 29.2459C42.1104 28.7309 42.1691 28.2104 42.1698 27.6846C42.3731 25.2714 41.6487 23.1525 39.9967 21.3279C35.6013 17.1919 31.2355 13.0099 26.8993 8.78176C23.8228 6.28747 20.4163 5.80422 16.6799 7.33199C12.801 9.56487 11.2543 12.8176 12.04 17.0901C12.8159 19.2037 14.108 20.9881 15.9164 22.4431C15.8405 23.4078 15.7426 24.3743 15.6227 25.3426L15.5734 26.0365C15.5734 26.0365 15.3679 28.4846 15.2703 29.692C13.6691 28.1159 12.0441 26.5547 10.3955 25.0081C5.64612 20.0416 4.74555 14.5028 7.6938 8.39144C11.1083 2.98802 16.1397 0.553138 22.7881 1.08681C25.1805 1.48447 27.3732 2.33947 29.3661 3.6518C30.7495 4.68596 32.0807 5.78258 33.3599 6.94167C34.9676 5.35859 36.7295 3.96458 38.6459 2.75963C44.7985 -0.104257 50.5151 0.5277 55.7958 4.65549C59.8153 8.41226 61.2836 12.9289 60.2007 18.2053C59.7008 19.8152 58.996 21.3393 58.0863 22.7777C55.87 25.3285 53.4816 27.7448 50.921 30.0265C51.0215 29.0296 51.0802 28.026 51.0972 27.0155C51.0086 25.4813 50.8715 23.9571 50.686 22.4431C52.1465 21.1556 53.3211 19.6687 54.21 17.9823C55.5852 13.7364 54.391 10.335 50.6273 7.77807C45.3663 5.38841 41.0397 6.44786 37.6474 10.9564C37.5691 11.0679 37.5691 11.1795 37.6474 11.291C39.4812 12.9402 41.2823 14.613 43.0508 16.3094C43.968 17.2346 44.8295 18.2011 45.635 19.209C46.8487 21.1057 47.6122 23.1503 47.9256 25.3426Z" fill="#3DA466"/>
</svg>
