<svg width="25" height="25" viewBox="0 0 25 25" fill="none" xmlns="http://www.w3.org/2000/svg">
<g clip-path="url(#clip0_1_3572)">
<path d="M12.5989 15.8459C14.2557 15.8459 15.5989 14.5027 15.5989 12.8459C15.5989 11.189 14.2557 9.84589 12.5989 9.84589C10.942 9.84589 9.59886 11.189 9.59886 12.8459C9.59886 14.5027 10.942 15.8459 12.5989 15.8459Z" stroke="#D0D5DD" stroke-width="2" stroke-linecap="round" stroke-linejoin="round"/>
<path d="M19.9989 15.8459C19.8657 16.1475 19.826 16.4821 19.8849 16.8065C19.9437 17.1309 20.0983 17.4302 20.3289 17.6659L20.3889 17.7259C20.5748 17.9116 20.7223 18.1322 20.823 18.375C20.9236 18.6178 20.9754 18.8781 20.9754 19.1409C20.9754 19.4037 20.9236 19.664 20.823 19.9068C20.7223 20.1496 20.5748 20.3701 20.3889 20.5559C20.2031 20.7418 19.9825 20.8894 19.7397 20.99C19.4969 21.0907 19.2367 21.1425 18.9739 21.1425C18.711 21.1425 18.4508 21.0907 18.208 20.99C17.9652 20.8894 17.7446 20.7418 17.5589 20.5559L17.4989 20.4959C17.2632 20.2653 16.9638 20.1107 16.6395 20.0519C16.3151 19.9931 15.9805 20.0328 15.6789 20.1659C15.3831 20.2926 15.1308 20.5031 14.9532 20.7714C14.7755 21.0397 14.6801 21.3541 14.6789 21.6759V21.8459C14.6789 22.3763 14.4681 22.885 14.0931 23.2601C13.718 23.6352 13.2093 23.8459 12.6789 23.8459C12.1484 23.8459 11.6397 23.6352 11.2646 23.2601C10.8896 22.885 10.6789 22.3763 10.6789 21.8459V21.7559C10.6711 21.4249 10.564 21.1039 10.3714 20.8346C10.1788 20.5653 9.9096 20.3602 9.59886 20.2459C9.29725 20.1128 8.96267 20.0731 8.63827 20.1319C8.31388 20.1907 8.01454 20.3453 7.77886 20.5759L7.71886 20.6359C7.53312 20.8218 7.31254 20.9694 7.06974 21.07C6.82695 21.1707 6.56669 21.2225 6.30386 21.2225C6.04103 21.2225 5.78078 21.1707 5.53798 21.07C5.29518 20.9694 5.07461 20.8218 4.88886 20.6359C4.70291 20.4501 4.55539 20.2296 4.45474 19.9868C4.35409 19.744 4.30229 19.4837 4.30229 19.2209C4.30229 18.9581 4.35409 18.6978 4.45474 18.455C4.55539 18.2122 4.70291 17.9916 4.88886 17.8059L4.94886 17.7459C5.1794 17.5102 5.33405 17.2109 5.39287 16.8865C5.45169 16.5621 5.41198 16.2275 5.27886 15.9259C5.1521 15.6301 4.94162 15.3779 4.67333 15.2002C4.40504 15.0225 4.09065 14.9272 3.76886 14.9259H3.59886C3.06843 14.9259 2.55972 14.7152 2.18465 14.3401C1.80958 13.965 1.59886 13.4563 1.59886 12.9259C1.59886 12.3955 1.80958 11.8867 2.18465 11.5117C2.55972 11.1366 3.06843 10.9259 3.59886 10.9259H3.68886C4.01986 10.9181 4.34087 10.811 4.61016 10.6184C4.87946 10.4258 5.08458 10.1566 5.19886 9.84589C5.33198 9.54427 5.37169 9.20969 5.31287 8.8853C5.25405 8.5609 5.0994 8.26157 4.86886 8.02589L4.80886 7.96589C4.62291 7.78014 4.47539 7.55956 4.37474 7.31677C4.27409 7.07397 4.22229 6.81372 4.22229 6.55089C4.22229 6.28806 4.27409 6.0278 4.37474 5.78501C4.47539 5.54221 4.62291 5.32163 4.80886 5.13589C4.99461 4.94993 5.21518 4.80242 5.45798 4.70177C5.70078 4.60112 5.96103 4.54931 6.22386 4.54931C6.48669 4.54931 6.74695 4.60112 6.98974 4.70177C7.23254 4.80242 7.45312 4.94993 7.63886 5.13589L7.69886 5.19589C7.93454 5.42642 8.23388 5.58107 8.55827 5.63989C8.88267 5.69871 9.21725 5.659 9.51886 5.52589H9.59886C9.89463 5.39912 10.1469 5.18864 10.3246 4.92035C10.5022 4.65206 10.5976 4.33767 10.5989 4.01589V3.84589C10.5989 3.31545 10.8096 2.80675 11.1846 2.43167C11.5597 2.0566 12.0684 1.84589 12.5989 1.84589C13.1293 1.84589 13.638 2.0566 14.0131 2.43167C14.3881 2.80675 14.5989 3.31545 14.5989 3.84589V3.93589C14.6001 4.25767 14.6955 4.57206 14.8732 4.84035C15.0508 5.10864 15.3031 5.31912 15.5989 5.44589C15.9005 5.579 16.2351 5.61871 16.5595 5.55989C16.8838 5.50107 17.1832 5.34642 17.4189 5.11589L17.4789 5.05589C17.6646 4.86993 17.8852 4.72242 18.128 4.62177C18.3708 4.52112 18.631 4.46931 18.8939 4.46931C19.1567 4.46931 19.4169 4.52112 19.6597 4.62177C19.9025 4.72242 20.1231 4.86993 20.3089 5.05589C20.4948 5.24163 20.6423 5.46221 20.743 5.70501C20.8436 5.9478 20.8954 6.20806 20.8954 6.47089C20.8954 6.73372 20.8436 6.99397 20.743 7.23677C20.6423 7.47956 20.4948 7.70014 20.3089 7.88589L20.2489 7.94589C20.0183 8.18157 19.8637 8.4809 19.8049 8.8053C19.746 9.12969 19.7857 9.46427 19.9189 9.76589V9.84589C20.0456 10.1417 20.2561 10.3939 20.5244 10.5716C20.7927 10.7493 21.1071 10.8446 21.4289 10.8459H21.5989C22.1293 10.8459 22.638 11.0566 23.0131 11.4317C23.3881 11.8067 23.5989 12.3155 23.5989 12.8459C23.5989 13.3763 23.3881 13.885 23.0131 14.2601C22.638 14.6352 22.1293 14.8459 21.5989 14.8459H21.5089C21.1871 14.8472 20.8727 14.9425 20.6044 15.1202C20.3361 15.2979 20.1256 15.5501 19.9989 15.8459Z" stroke="#D0D5DD" stroke-width="2" stroke-linecap="round" stroke-linejoin="round"/>
</g>
<defs>
<clipPath id="clip0_1_3572">
<rect width="24" height="24" fill="white" transform="translate(0.598862 0.845886)"/>
</clipPath>
</defs>
</svg>
