<svg width="25" height="25" viewBox="0 0 25 25" fill="none" xmlns="http://www.w3.org/2000/svg">
<path d="M8.59886 9.21011H16.5989M8.59886 12.7101H14.0989" stroke="#FEFEFE" stroke-width="1.5" stroke-linecap="round"/>
<path d="M1.84886 10.7101C1.84886 10.909 1.92788 11.0998 2.06853 11.2404C2.20918 11.3811 2.39995 11.4601 2.59886 11.4601C2.79777 11.4601 2.98854 11.3811 3.12919 11.2404C3.26984 11.0998 3.34886 10.909 3.34886 10.7101H1.84886ZM3.67286 15.8361C3.59674 15.6523 3.45073 15.5063 3.26695 15.4301C3.08316 15.354 2.87666 15.354 2.69286 15.4301C2.50907 15.5062 2.36304 15.6522 2.2869 15.836C2.21076 16.0198 2.21074 16.2263 2.28686 16.4101L3.67286 15.8361ZM14.3309 21.9801L14.8729 21.0641L13.5829 20.3001L13.0399 21.2161L14.3309 21.9801ZM10.3249 21.0641L10.8669 21.9801L12.1569 21.2161L11.6159 20.3001L10.3249 21.0641ZM13.0399 21.2161C12.9931 21.2909 12.9281 21.3526 12.851 21.3954C12.7738 21.4381 12.6871 21.4606 12.5989 21.4606C12.5107 21.4606 12.4239 21.4381 12.3467 21.3954C12.2696 21.3526 12.2046 21.2909 12.1579 21.2161L10.8669 21.9801C11.6399 23.2871 13.5569 23.2871 14.3309 21.9801L13.0409 21.2161H13.0399ZM11.0989 2.96011H14.0989V1.46011H11.0989V2.96011ZM21.8489 10.7101V11.7101H23.3489V10.7101H21.8489ZM8.40186 18.4521C7.14586 18.4301 6.48786 18.3501 5.97186 18.1361L5.39886 19.5221C6.20386 19.8561 7.11986 19.9311 8.37586 19.9531L8.40186 18.4521ZM2.28686 16.4101C2.57583 17.1078 2.99938 17.7417 3.53334 18.2756C4.0673 18.8096 4.70121 19.2331 5.39886 19.5221L5.97186 18.1361C4.93054 17.7048 4.10421 16.8774 3.67286 15.8361L2.28686 16.4101ZM21.8489 11.7101C21.8489 12.8851 21.8489 13.7291 21.8029 14.3951C21.7579 15.0541 21.6719 15.4841 21.5259 15.8361L22.9109 16.4101C23.1459 15.8441 23.2489 15.2321 23.2999 14.4971C23.3499 13.7681 23.3489 12.8651 23.3489 11.7101H21.8489ZM16.8219 19.9511C18.0779 19.9301 18.9939 19.8561 19.7989 19.5221L19.2249 18.1361C18.7099 18.3501 18.0519 18.4301 16.7969 18.4521L16.8219 19.9521V19.9511ZM21.5259 15.8361C21.0945 16.8774 20.2672 17.7048 19.2259 18.1361L19.7989 19.5221C20.4965 19.2331 21.1304 18.8096 21.6644 18.2756C22.1983 17.7417 22.6219 17.1078 22.9109 16.4101L21.5259 15.8361ZM14.0989 2.96011C15.7499 2.96011 16.9359 2.96011 17.8609 3.04911C18.7749 3.13611 19.3559 3.30211 19.8199 3.58611L20.6029 2.30711C19.8639 1.85511 19.0259 1.65311 18.0029 1.55511C16.9909 1.45911 15.7209 1.46011 14.0989 1.46011V2.96011ZM23.3489 10.7101C23.3489 9.08811 23.3489 7.81911 23.2529 6.80611C23.1559 5.78311 22.9539 4.94411 22.5019 4.20611L21.2219 4.98911C21.5069 5.45311 21.6729 6.03411 21.7599 6.94911C21.8479 7.87311 21.8489 9.05911 21.8489 10.7101H23.3489ZM19.8189 3.58611C20.391 3.93641 20.8722 4.41719 21.2229 4.98911L22.5019 4.20611C22.0276 3.43209 21.3769 2.78134 20.6029 2.30711L19.8199 3.58711L19.8189 3.58611ZM11.0989 1.46011C9.47686 1.46011 8.20786 1.46011 7.19486 1.55511C6.17186 1.65311 5.33286 1.85511 4.59486 2.30711L5.37786 3.58711C5.84186 3.30211 6.42286 3.13611 7.33786 3.04911C8.26186 2.96111 9.44786 2.96011 11.0989 2.96011V1.46011ZM3.34886 10.7101C3.34886 9.05911 3.34886 7.87311 3.43786 6.94811C3.52486 6.03411 3.69086 5.45311 3.97486 4.98911L2.69586 4.20711C2.24386 4.94511 2.04186 5.78311 1.94386 6.80611C1.84886 7.82011 1.84886 9.08811 1.84886 10.7101H3.34886ZM4.59486 2.30711C3.82084 2.78134 3.17009 3.43309 2.69586 4.20711L3.97586 4.98911C4.326 4.41742 4.80641 3.93666 5.37786 3.58611L4.59486 2.30711ZM11.6149 20.3001C11.4129 19.9571 11.2349 19.6541 11.0609 19.4161C10.8819 19.1551 10.6494 18.9353 10.3789 18.7711L9.62486 20.0681C9.67186 20.0961 9.73686 20.1461 9.84886 20.3001C9.96986 20.4661 10.1069 20.6961 10.3249 21.0641L11.6149 20.3001ZM8.37586 19.9511C8.81586 19.9591 9.09286 19.9651 9.30486 19.9881C9.50286 20.0101 9.57986 20.0421 9.62486 20.0681L10.3789 18.7711C10.0989 18.616 9.78894 18.5226 9.46986 18.4971C9.17186 18.4641 8.81386 18.4591 8.40186 18.4521L8.37586 19.9531V19.9511ZM14.8729 21.0641C15.0909 20.6971 15.2279 20.4661 15.3489 20.3001C15.4609 20.1461 15.5259 20.0961 15.5729 20.0681L14.8189 18.7711C14.5289 18.9411 14.3189 19.1661 14.1369 19.4161C13.9639 19.6541 13.7849 19.9561 13.5819 20.3001L14.8729 21.0641ZM16.7969 18.4521C16.3849 18.4591 16.0259 18.4641 15.7279 18.4971C15.4169 18.5321 15.1119 18.6011 14.8189 18.7711L15.5729 20.0681C15.6179 20.0421 15.6949 20.0101 15.8929 19.9881C16.1049 19.9651 16.3829 19.9581 16.8229 19.9511L16.7969 18.4511V18.4521Z" fill="#FEFEFE"/>
</svg>
