<svg width="25" height="25" viewBox="0 0 25 25" fill="none" xmlns="http://www.w3.org/2000/svg">
<g clip-path="url(#clip0_1_3554)">
<path d="M17.5989 21.7575V19.7575C17.5989 18.6967 17.1774 17.6793 16.4273 16.9291C15.6771 16.179 14.6597 15.7575 13.5989 15.7575H5.59886C4.538 15.7575 3.52058 16.179 2.77043 16.9291C2.02029 17.6793 1.59886 18.6967 1.59886 19.7575V21.7575M23.5989 21.7575V19.7575C23.5982 18.8713 23.3032 18.0103 22.7602 17.3099C22.2172 16.6094 21.457 16.1091 20.5989 15.8875M16.5989 3.88754C17.4593 4.10784 18.2219 4.60824 18.7665 5.30985C19.3111 6.01146 19.6067 6.87437 19.6067 7.76254C19.6067 8.65071 19.3111 9.51362 18.7665 10.2152C18.2219 10.9168 17.4593 11.4172 16.5989 11.6375M13.5989 7.75754C13.5989 9.96668 11.808 11.7575 9.59886 11.7575C7.38972 11.7575 5.59886 9.96668 5.59886 7.75754C5.59886 5.5484 7.38972 3.75754 9.59886 3.75754C11.808 3.75754 13.5989 5.5484 13.5989 7.75754Z" stroke="#D0D5DD" stroke-width="2" stroke-linecap="round" stroke-linejoin="round"/>
</g>
<defs>
<clipPath id="clip0_1_3554">
<rect width="24" height="24" fill="white" transform="translate(0.598862 0.757538)"/>
</clipPath>
</defs>
</svg>
